<?xml version="1.0" encoding="UTF-8"?>
<svg version="1.1" xmlns="http://www.w3.org/2000/svg" width="500" height="500">
<path d="M0 0 C165 0 330 0 500 0 C500 165 500 330 500 500 C335 500 170 500 0 500 C0 335 0 170 0 0 Z " fill="#FEFEFE" transform="translate(0,0)"/>
<path d="M0 0 C3.41993215 1.41514434 5.0000527 2.9007768 7 6 C7.96728516 8.7331543 7.96728516 8.7331543 8.7890625 11.82421875 C9.09070313 12.93474609 9.39234375 14.04527344 9.703125 15.18945312 C10.00734375 16.34380859 10.3115625 17.49816406 10.625 18.6875 C11.23938429 20.98382475 11.85642457 23.27944112 12.4765625 25.57421875 C12.74549316 26.59088623 13.01442383 27.60755371 13.29150391 28.6550293 C13.77947453 30.93693316 13.77947453 30.93693316 15 32 C15.04063832 33.66617115 15.042721 35.33388095 15 37 C16.485 37.495 16.485 37.495 18 38 C19.1096097 39.86973603 19.89467831 41.7964479 20.7421875 43.796875 C22.40531527 46.70993109 24.57780289 48.68774156 27 51 C28.18529297 52.2375 28.18529297 52.2375 29.39453125 53.5 C34.28538333 58.55677759 38.86346438 62.60668241 45 66 C45.78141357 66.45705322 46.56282715 66.91410645 47.36791992 67.38500977 C54.15654311 71.26685121 60.91746465 73.88677101 68.375 76.1875 C70.46791771 76.8420171 72.55913922 77.50198837 74.6484375 78.16796875 C75.55770996 78.44922607 76.46698242 78.7304834 77.40380859 79.02026367 C80.23901359 80.09019762 82.57658688 81.16973568 85 83 C85 84.32 85 85.64 85 87 C84.24904053 87.19110352 83.49808105 87.38220703 82.72436523 87.57910156 C79.29259547 88.4588118 75.86511637 89.35424959 72.4375 90.25 C70.66536133 90.70052734 70.66536133 90.70052734 68.85742188 91.16015625 C62.62736618 92.80056307 57.4153053 94.50768066 52 98 C50.88625 98.45375 49.7725 98.9075 48.625 99.375 C44.02473424 101.4371881 40.07640015 104.05188918 36 107 C35.401875 107.42925781 34.80375 107.85851562 34.1875 108.30078125 C25.14928647 115.39326826 19.1368869 125.43950479 15 136 C14.34 136 13.68 136 13 136 C12.84144531 136.57105469 12.68289062 137.14210938 12.51953125 137.73046875 C9.93449298 146.71383378 6.47684987 155.33190886 3 164 C0 163 0 163 -1.02734375 161.23754883 C-1.47787109 160.10869263 -1.47787109 160.10869263 -1.9375 158.95703125 C-2.44410156 157.71663086 -2.44410156 157.71663086 -2.9609375 156.45117188 C-3.30382812 155.58041016 -3.64671875 154.70964844 -4 153.8125 C-4.68566506 152.10993696 -5.37312779 150.40809664 -6.0625 148.70703125 C-6.55484131 147.48898804 -6.55484131 147.48898804 -7.05712891 146.24633789 C-8.2405172 143.42698117 -9.59409882 140.7142832 -11 138 C-12.82254429 134.00442214 -14.34051879 130.35257596 -15 126 C-15.99 125.67 -16.98 125.34 -18 125 C-18.515625 124.030625 -19.03125 123.06125 -19.5625 122.0625 C-23.17554332 115.27222793 -29.66964135 109.29754951 -36 105 C-36.99 104.7834375 -36.99 104.7834375 -38 104.5625 C-40 104 -40 104 -41.64453125 102.20703125 C-44.69492878 99.34886441 -47.91104209 97.85045059 -51.6875 96.125 C-52.42484375 95.77985352 -53.1621875 95.43470703 -53.921875 95.07910156 C-60.03837448 92.28217435 -66.29032511 90.0178355 -72.72924805 88.07861328 C-74.78125 87.421875 -74.78125 87.421875 -78 86 C-78.96875 83.828125 -78.96875 83.828125 -79 82 C-77.62667716 81.37132332 -76.25124167 80.74726109 -74.875 80.125 C-74.10929687 79.77695313 -73.34359375 79.42890625 -72.5546875 79.0703125 C-69.7430413 77.89234452 -66.89330637 76.95967868 -64 76 C-61.46996441 75.0388542 -58.95144055 74.06353751 -56.4375 73.0625 C-55.46780273 72.68448242 -55.46780273 72.68448242 -54.47851562 72.29882812 C-50.75603156 70.81816559 -47.40357054 69.10112116 -44 67 C-42.9790625 66.7834375 -42.9790625 66.7834375 -41.9375 66.5625 C-39.15078105 65.75345256 -38.00089941 64.11206049 -36 62 C-34.65878014 60.75671912 -33.30341952 59.52859289 -31.9375 58.3125 C-31.26589844 57.71050781 -30.59429687 57.10851562 -29.90234375 56.48828125 C-28 55 -28 55 -25 54 C-24.28638216 52.69119451 -23.63089914 51.35062523 -23 50 C-21.58027415 47.96664019 -20.14047043 45.94723893 -18.6875 43.9375 C-14.66338277 38.23419117 -11.56046918 32.51497157 -9 26 C-8.63132812 25.08347656 -8.26265625 24.16695312 -7.8828125 23.22265625 C-5.83987618 17.90654823 -4.49379603 12.7723325 -3.50390625 7.171875 C-2.86064746 4.39937973 -1.67600628 2.28546311 0 0 Z " fill="#190E21" transform="translate(193,149)"/>
<path d="M0 0 C0.99 0 1.98 0 3 0 C3.25652344 0.70382813 3.51304687 1.40765625 3.77734375 2.1328125 C8.0367717 13.11840781 13.96367052 26.41342826 25 32 C27.31470912 32.72870472 29.6505947 33.39239518 32 34 C35.39070254 35.55842863 38.6993103 37.25999859 42 39 C42 39.99 42 40.98 42 42 C41.17757812 42.21914062 40.35515625 42.43828125 39.5078125 42.6640625 C29.93513673 45.38332144 20.82984166 48.4794622 15 57 C14.37222656 57.56589844 13.74445313 58.13179687 13.09765625 58.71484375 C10.48239254 61.56387405 9.29282469 64.37178216 7.8125 67.9375 C7.04873047 69.74541016 7.04873047 69.74541016 6.26953125 71.58984375 C5.21159345 74.43162743 4.46997821 77.01592147 4 80 C2.35 79.67 0.7 79.34 -1 79 C-1.66 75.37 -2.32 71.74 -3 68 C-3.66 68 -4.32 68 -5 68 C-8 61.25 -8 61.25 -8 59 C-8.66 59 -9.32 59 -10 59 C-10.97317656 57.82021058 -11.90300242 56.60454863 -12.8125 55.375 C-19.31132628 47.70936984 -29.6479962 44.8531537 -39 42 C-38.734375 40.1015625 -38.734375 40.1015625 -38 38 C-36.328125 37.0234375 -36.328125 37.0234375 -34.25 36.375 C-33.52683594 36.1378125 -32.80367187 35.900625 -32.05859375 35.65625 C-31.37925781 35.4396875 -30.69992187 35.223125 -30 35 C-29.113125 34.62875 -28.22625 34.2575 -27.3125 33.875 C-24.89067847 32.9586351 -22.54844124 32.43687564 -20 32 C-20 31.34 -20 30.68 -20 30 C-18.81806386 29.30703744 -17.60228655 28.67154669 -16.375 28.0625 C-10.80954927 24.79453071 -8.63325336 19.69540784 -6 14 C-5.01 14 -4.02 14 -3 14 C-2.95101562 13.40832031 -2.90203125 12.81664063 -2.8515625 12.20703125 C-2.43543133 7.80895528 -1.95034405 4.03071103 0 0 Z " fill="#592970" transform="translate(288,107)"/>
<path d="M0 0 C1.32 0 2.64 0 4 0 C4.3403125 1.6396875 4.3403125 1.6396875 4.6875 3.3125 C7.35989893 13.871279 12.67501737 24.85915778 22 31 C27.46324057 33.6780591 33.15648012 35.34218048 39 37 C39 37.66 39 38.32 39 39 C39.99 39 40.98 39 42 39 C42 39.99 42 40.98 42 42 C41.36835938 42.0515625 40.73671875 42.103125 40.0859375 42.15625 C29.52935329 43.49483705 19.68213191 48.43757697 12.5 56.375 C7.44209096 63.3078236 5.34340115 71.85135508 3 80 C2.01 80 1.02 80 0 80 C-0.14695312 79.24976563 -0.29390625 78.49953125 -0.4453125 77.7265625 C-3.48255857 63.86694536 -10.4878476 54.04240961 -22.37890625 46.35546875 C-27.31622542 43.80219043 -32.64302995 42.40755009 -38 41 C-37.67 39.68 -37.34 38.36 -37 37 C-36.31035156 36.84144531 -35.62070313 36.68289063 -34.91015625 36.51953125 C-24.58916684 33.95698107 -14.08581979 29.59449469 -8.26953125 20.20703125 C-7.20455586 18.25162512 -6.16733618 16.28073826 -5.1640625 14.29296875 C-4 12 -4 12 -3 11 C-2.63128912 9.34080104 -2.30404678 7.67225729 -2 6 C-1.11111111 1.11111111 -1.11111111 1.11111111 0 0 Z " fill="#1C1225" transform="translate(288,279)"/>
<path d="M0 0 C4.48882064 0.62666388 8.55014169 1.71067974 12.8125 3.25 C13.95332031 3.64703125 15.09414063 4.0440625 16.26953125 4.453125 C17.17058594 4.96359375 18.07164062 5.4740625 19 6 C19.6706543 8.59667969 19.6706543 8.59667969 20 11 C16.23275337 12.03439955 12.46073148 13.0501696 8.6875 14.0625 C7.61564453 14.35705078 6.54378906 14.65160156 5.43945312 14.95507812 C4.41142578 15.22900391 3.38339844 15.50292969 2.32421875 15.78515625 C1.37635498 16.04176025 0.42849121 16.29836426 -0.5480957 16.56274414 C-3 17 -3 17 -6 16 C-5.3387915 15.79842285 -4.67758301 15.5968457 -3.99633789 15.38916016 C-1.01589666 14.47569335 1.96078052 13.5505192 4.9375 12.625 C5.97841797 12.30789062 7.01933594 11.99078125 8.09179688 11.6640625 C9.08115234 11.3546875 10.07050781 11.0453125 11.08984375 10.7265625 C12.00628662 10.44377441 12.92272949 10.16098633 13.86694336 9.86962891 C16.17340606 9.20269356 16.17340606 9.20269356 17 7 C16.35933594 6.81824219 15.71867187 6.63648438 15.05859375 6.44921875 C9.85604103 4.93729955 4.92855673 3.24999329 0 1 C0 0.67 0 0.34 0 0 Z " fill="#61446F" transform="translate(258,225)"/>
<path d="M0 0 C1.32 0 2.64 0 4 0 C4.268125 1.19625 4.53625 2.3925 4.8125 3.625 C5.51758566 6.51687308 6.29022563 8.55895307 7.6875 11.25 C9 14 9 14 8.6875 16.375 C8.3471875 17.179375 8.3471875 17.179375 8 18 C8 17.01 8 16.02 8 15 C7.01 14.67 6.02 14.34 5 14 C3.37676246 10.24092359 2.76005071 7.07913787 3 3 C2.34 3 1.68 3 1 3 C1.33 3.99 1.66 4.98 2 6 C1.125 8 1.125 8 0 10 C-0.33 10.99 -0.66 11.98 -1 13 C-1.99 13.495 -1.99 13.495 -3 14 C-4.13350534 16.01669827 -4.13350534 16.01669827 -5 18 C-5.33 17.34 -5.66 16.68 -6 16 C-5.566875 15.34 -5.13375 14.68 -4.6875 14 C-2.66547769 10.40529367 -2.1100021 7.14352121 -1.4296875 3.109375 C-1 1 -1 1 0 0 Z " fill="#493556" transform="translate(288,279)"/>
<path d="M0 0 C3.3997571 1.40679604 5.0916179 2.84982561 7 6 C7.80534559 8.18170544 8.53033955 10.39417946 9.1875 12.625 C9.53167969 13.77226562 9.87585938 14.91953125 10.23046875 16.1015625 C11 19 11 19 11 21 C10.01 21 9.02 21 8 21 C7.74605469 19.86820313 7.49210938 18.73640625 7.23046875 17.5703125 C6.88343748 16.08839517 6.53574687 14.60663214 6.1875 13.125 C6.02185547 12.37863281 5.85621094 11.63226563 5.68554688 10.86328125 C4.63150798 6.11148872 4.63150798 6.11148872 1 3 C1 3.66 1 4.32 1 5 C0.34 5 -0.32 5 -1 5 C-1.66 6.65 -2.32 8.3 -3 10 C-3.33 9.34 -3.66 8.68 -4 8 C-3.22265625 6.0546875 -3.22265625 6.0546875 -2.0625 3.875 C-1.49208984 2.78832031 -1.49208984 2.78832031 -0.91015625 1.6796875 C-0.60980469 1.12539062 -0.30945313 0.57109375 0 0 Z " fill="#725B83" transform="translate(193,149)"/>
<path d="M0 0 C0.66 0.33 1.32 0.66 2 1 C-10.34745763 15.44915254 -10.34745763 15.44915254 -15 17 C-11.94269789 9.77364955 -5.86289574 4.9172674 0 0 Z " fill="#CDC8D0" transform="translate(231,253)"/>
<path d="M0 0 C1.32 0.66 2.64 1.32 4 2 C3.67 2.66 3.34 3.32 3 4 C2.36320313 4.0928125 1.72640625 4.185625 1.0703125 4.28125 C0.38710937 4.5184375 -0.29609375 4.755625 -1 5 C-2.29155097 7.50731327 -2.29155097 7.50731327 -3.125 10.5 C-3.70165519 12.34910922 -4.31738112 14.18733137 -5 16 C-5.66 16.33 -6.32 16.66 -7 17 C-5.18042813 5.97553517 -5.18042813 5.97553517 -2 2 C-1.34 2 -0.68 2 0 2 C0 1.34 0 0.68 0 0 Z " fill="#4A2F5C" transform="translate(194,152)"/>
<path d="M0 0 C1.54415517 4.38340822 0.09478078 6.84548978 -1.80859375 10.87109375 C-3.20256076 13.36195284 -4.79558341 15.18922923 -7 17 C-7 13.57457225 -6.19141071 12.07308706 -4.625 9.0625 C-4.18414062 8.20785156 -3.74328125 7.35320312 -3.2890625 6.47265625 C-2.86367187 5.65667969 -2.43828125 4.84070313 -2 4 C-1.33063928 2.6680171 -0.66294662 1.33518688 0 0 Z " fill="#6F5B7B" transform="translate(184,175)"/>
<path d="M0 0 C3.36748512 1.51947499 4.60840337 2.52100842 6 6 C4.35 5.01 2.7 4.02 1 3 C1 3.66 1 4.32 1 5 C0.34 5 -0.32 5 -1 5 C-1.66 6.65 -2.32 8.3 -3 10 C-3.33 9.34 -3.66 8.68 -4 8 C-3.22265625 6.0546875 -3.22265625 6.0546875 -2.0625 3.875 C-1.49208984 2.78832031 -1.49208984 2.78832031 -0.91015625 1.6796875 C-0.60980469 1.12539062 -0.30945313 0.57109375 0 0 Z " fill="#90809D" transform="translate(193,149)"/>
<path d="M0 0 C5.94 1.98 11.88 3.96 18 6 C12.12081747 7.46979563 7.33370184 6.14303764 1.9375 3.5 C1.298125 3.005 0.65875 2.51 0 2 C0 1.34 0 0.68 0 0 Z " fill="#7D7086" transform="translate(309,310)"/>
<path d="M0 0 C0.33 0 0.66 0 1 0 C1.268125 1.19625 1.53625 2.3925 1.8125 3.625 C2.51758566 6.51687308 3.29022563 8.55895307 4.6875 11.25 C6 14 6 14 5.6875 16.375 C5.460625 16.91125 5.23375 17.4475 5 18 C5 17.01 5 16.02 5 15 C4.01 14.67 3.02 14.34 2 14 C-0.2012966 9.24983365 -0.1765235 5.11918146 0 0 Z " fill="#706279" transform="translate(291,279)"/>
<path d="M0 0 C0.66 0.33 1.32 0.66 2 1 C0.90344712 2.31886772 -0.20253423 3.62990057 -1.3125 4.9375 C-1.92738281 5.66839844 -2.54226563 6.39929688 -3.17578125 7.15234375 C-5 9 -5 9 -8 10 C-7.34 8.68 -6.68 7.36 -6 6 C-5.34 6 -4.68 6 -4 6 C-3.71125 5.38125 -3.4225 4.7625 -3.125 4.125 C-2 2 -2 2 0 0 Z " fill="#CBBDD3" transform="translate(307,158)"/>
<path d="M0 0 C-3.36423277 2.96052484 -6.69159287 3.92289822 -11 5 C-11 4.34 -11 3.68 -11 3 C-3.88372093 -1.94186047 -3.88372093 -1.94186047 0 0 Z " fill="#5B4268" transform="translate(249,244)"/>
<path d="M0 0 C0.66 0.33 1.32 0.66 2 1 C0.68 2.32 -0.64 3.64 -2 5 C-3.32 4.34 -4.64 3.68 -6 3 C-4.03533587 1.93224776 -2.03144641 0.93446535 0 0 Z " fill="#56505D" transform="translate(266,311)"/>
<path d="M0 0 C0.99 0 1.98 0 3 0 C3 0.99 3 1.98 3 3 C0.5 5.1875 0.5 5.1875 -2 7 C-1.125 1.125 -1.125 1.125 0 0 Z " fill="#584566" transform="translate(288,279)"/>
<path d="M0 0 C-0.66 0 -1.32 0 -2 0 C-2.33 0.99 -2.66 1.98 -3 3 C-5.31 2.67 -7.62 2.34 -10 2 C-3.75 -1.125 -3.75 -1.125 0 0 Z " fill="#58555D" transform="translate(127,228)"/>
<path d="M0 0 C3.55780196 0.60990891 6.6828589 1.5783681 10 3 C10 3.33 10 3.66 10 4 C7.36 3.67 4.72 3.34 2 3 C2 2.34 2 1.68 2 1 C1.34 0.67 0.68 0.34 0 0 Z " fill="#9171A3" transform="translate(315,140)"/>
</svg>
